{
    "asset": {
        "version": "2.0",
        "generator": "Open Asset Import Library (assimp v5.4.0)"
    },
    "extensionsUsed": [
        "KHR_materials_specular",
        "KHR_materials_volume",
        "KHR_materials_ior",
        "FB_ngon_encoding"
    ],
    "accessors": [
        {
            "bufferView": 0,
            "byteOffset": 0,
            "componentType": 5126,
            "count": 5293,
            "type": "VEC3",
            "max": [
                0.07498645037412643,
                0.07509999722242355,
                0.03799998015165329
            ],
            "min": [
                -0.07497435063123703,
                -0.09200149029493332,
                0.0
            ]
        },
        {
            "bufferView": 1,
            "byteOffset": 0,
            "componentType": 5126,
            "count": 5293,
            "type": "VEC3",
            "max": [
                1.0,
                1.0,
                1.0
            ],
            "min": [
                -1.0,
                -1.0,
                -1.0
            ]
        },
        {
            "bufferView": 2,
            "byteOffset": 0,
            "componentType": 5125,
            "count": 6000,
            "type": "SCALAR",
            "max": [
                5292
            ],
            "min": [
                0
            ]
        }
    ],
    "buffers": [
        {
            "byteLength": 151032,
            "uri": "base.bin"
        }
    ],
    "bufferViews": [
        {
            "buffer": 0,
            "byteOffset": 0,
            "byteLength": 63516,
            "target": 34962
        },
        {
            "buffer": 0,
            "byteOffset": 63516,
            "byteLength": 63516,
            "target": 34962
        },
        {
            "buffer": 0,
            "byteOffset": 127032,
            "byteLength": 24000,
            "target": 34963
        }
    ],
    "materials": [
        {
            "name": "SWMaterial-2_001",
            "pbrMetallicRoughness": {
                "baseColorFactor": [
                    0.3714509904384613,
                    0.3714509904384613,
                    0.3714509904384613,
                    1.0
                ],
                "metallicFactor": 0.0
            },
            "extensions": {
                "KHR_materials_specular": {
                    "specularFactor": 1.0,
                    "specularColorFactor": [
                        0.25,
                        0.25,
                        0.25
                    ]
                },
                "KHR_materials_ior": {
                    "ior": 1.0
                }
            }
        }
    ],
    "meshes": [
        {
            "name": "shape0_001-mesh",
            "primitives": [
                {
                    "mode": 4,
                    "material": 0,
                    "indices": 2,
                    "attributes": {
                        "POSITION": 0,
                        "NORMAL": 1
                    }
                }
            ]
        }
    ],
    "nodes": [
        {
            "name": "Scene",
            "matrix": [
                1.0,
                0.0,
                0.0,
                0.0,
                0.0,
                0.0,
                -1.0,
                0.0,
                0.0,
                1.0,
                0.0,
                0.0,
                0.0,
                0.0,
                0.0,
                1.0
            ],
            "children": [
                1
            ]
        },
        {
            "name": "node-shape0-name",
            "mesh": 0
        }
    ],
    "scenes": [
        {
            "nodes": [
                0
            ]
        }
    ],
    "scene": 0
}